<svg width="27" height="28" viewBox="0 0 27 28" fill="none" xmlns="http://www.w3.org/2000/svg">
<path d="M26.124 12.5608L13.1333 0L0.143177 12.5608C-0.037988 12.7376 -0.0493109 13.0371 0.121098 13.2282C0.289242 13.4198 0.576842 13.4286 0.760272 13.2517L2.26395 11.7985V27.5276H24.0027V11.7985L25.5069 13.2517C25.593 13.3366 25.7034 13.3779 25.8143 13.3779C25.9377 13.3779 26.0572 13.3272 26.1461 13.2282C26.3182 13.0371 26.3074 12.7376 26.124 12.5608ZM10.4153 26.586V19.0389C10.4153 17.4778 11.6342 16.2084 13.1333 16.2084C14.633 16.2084 15.8514 17.4778 15.8514 19.0389V26.586H10.4153V26.586ZM23.0985 26.586H16.7561V19.0389C16.7561 16.9572 15.1307 15.2645 13.1333 15.2645C11.1365 15.2645 9.51113 16.9572 9.51113 19.0389V26.586H3.16864V10.9229L13.1333 1.28762L23.0985 10.9229V26.586Z" fill="white"/>
</svg>
