<svg width="34" height="26" viewBox="0 0 34 26" fill="none" xmlns="http://www.w3.org/2000/svg">
<path d="M13.3955 19.1539C13.347 19.0675 13.2659 18.9993 13.1667 18.9613L10.1279 17.7838L9.88326 17.1049C10.6749 16.5318 11.153 15.5812 11.153 14.419V13.5994V11.1404C11.153 11.0317 11.1047 10.9275 11.0189 10.8506C10.1641 10.203 9.06812 9.86746 7.94946 9.91085C6.83079 9.86741 5.73489 10.203 4.87999 10.8506C4.79418 10.9275 4.7459 11.0317 4.7459 11.1404V13.5994V14.419C4.7459 15.5805 5.22335 16.5307 6.01417 17.1038L5.76921 17.7838L2.73453 18.9613C2.63528 18.9993 2.55421 19.0675 2.5057 19.1539L2.04805 19.9736C2.01636 20.0305 1.99994 20.0932 2 20.1568V25.0748H2.9153V20.2535L3.24984 19.6539L6.00507 18.5852L7.49181 19.9166V21.3863H8.40711V19.9166L9.89373 18.5853L12.6491 19.6539L12.9836 20.2535V25.0748H13.8989V20.1568C13.8997 20.0933 13.884 20.0306 13.8531 19.9736L13.3955 19.1539ZM7.94946 10.7305C8.76436 10.7058 9.56656 10.9162 10.2377 11.3309V13.1304C10.0089 13.0765 9.78006 12.974 9.78006 12.7797C9.78006 12.5534 9.57514 12.3699 9.32241 12.3699H6.5765C6.32377 12.3699 6.11885 12.5534 6.11885 12.7797C6.11885 12.974 5.89003 13.0764 5.6612 13.1304V11.3313C6.33229 10.9165 7.13449 10.7059 7.94946 10.7305ZM5.6612 14.419V13.9711C6.21147 13.9239 6.69727 13.6294 6.95086 13.1895H8.94805C9.20164 13.6294 9.68744 13.9239 10.2377 13.9711V14.419C10.2377 15.5535 9.63819 16.8781 7.94946 16.8781C6.26073 16.8781 5.6612 15.5535 5.6612 14.419ZM7.94946 17.6977C8.35236 17.6977 8.72901 17.6358 9.0727 17.5201L9.24741 18.0051L7.94946 19.1674L6.65099 18.0046L6.82507 17.5198C7.1691 17.6356 7.54615 17.6977 7.94946 17.6977Z" fill="#4F82E3"/>
<path d="M5.20339 23.0256H4.28809V25.0748H5.20339V23.0256Z" fill="#4F82E3"/>
<path d="M11.6106 23.0256H10.6953V25.0748H11.6106V23.0256Z" fill="#4F82E3"/>
<path d="M30.7861 19.1539C30.7376 19.0675 30.6566 18.9993 30.5573 18.9613L27.5185 17.7838L27.2739 17.1049C28.0656 16.5318 28.5437 15.5812 28.5437 14.419V13.5994V11.1404C28.5437 11.0317 28.4954 10.9275 28.4096 10.8506C27.5547 10.203 26.4588 9.86746 25.3401 9.91085C24.2214 9.86741 23.1255 10.203 22.2706 10.8506C22.1848 10.9275 22.1366 11.0317 22.1366 11.1404V13.5994V14.419C22.1366 15.58 22.6136 16.5298 23.4037 17.103L23.1585 17.7838L20.1229 18.9613C20.0236 18.9993 19.9426 19.0675 19.8941 19.1539L19.4364 19.9736C19.4055 20.0306 19.3899 20.0933 19.3907 20.1568V25.0748H20.306V20.2535L20.64 19.6539L23.3957 18.5852L24.8825 19.9166V21.3863H25.7978V19.9166L27.2844 18.5853L30.0397 19.6539L30.3743 20.2535V25.0748H31.2896V20.1568C31.2904 20.0933 31.2747 20.0306 31.2438 19.9736L30.7861 19.1539ZM25.3401 10.7305C26.155 10.7058 26.9572 10.9162 27.6284 11.3309V13.1304C27.3995 13.0765 27.1707 12.974 27.1707 12.7797C27.1707 12.5534 26.9658 12.3699 26.7131 12.3699H23.9672C23.7144 12.3699 23.5095 12.5534 23.5095 12.7797C23.5095 12.974 23.2807 13.0764 23.0519 13.1304V11.3313C23.7229 10.9165 24.5251 10.7059 25.3401 10.7305ZM23.0519 14.419V13.9711C23.6021 13.9239 24.0879 13.6294 24.3415 13.1895H26.3387C26.5923 13.6294 27.0781 13.9239 27.6284 13.9711V14.419C27.6284 15.5535 27.0288 16.8781 25.3401 16.8781C23.6514 16.8781 23.0519 15.5535 23.0519 14.419ZM25.3401 17.6977C25.743 17.6977 26.1197 17.6358 26.4634 17.5201L26.6381 18.0051L25.3401 19.1674L24.0415 18.0045L24.215 17.5196C24.5592 17.6355 24.9365 17.6977 25.3401 17.6977Z" fill="#4F82E3"/>
<path d="M22.594 23.0256H21.6787V25.0748H22.594V23.0256Z" fill="#4F82E3"/>
<path d="M29.0017 23.0256H28.0864V25.0748H29.0017V23.0256Z" fill="#4F82E3"/>
<path d="M18.5893 18.5849L19.509 18.9425L19.8733 18.1904L18.8253 17.7839L18.5802 17.1036C19.3708 16.5304 19.8481 15.5803 19.8481 14.4191V13.5994V11.1404C19.8481 11.0317 19.7998 10.9275 19.714 10.8506C18.8592 10.203 17.7632 9.86746 16.6446 9.91085C15.5259 9.86741 14.43 10.203 13.5751 10.8506C13.4893 10.9275 13.441 11.0317 13.441 11.1404V13.5994V14.4191C13.441 15.5798 13.9179 16.5296 14.7078 17.1028L14.462 17.785L13.2964 18.2359L13.6625 18.9879L14.7002 18.5852L16.1869 19.9166V21.3863H17.1022V19.9166L18.5893 18.5849ZM16.6446 10.7305C17.4595 10.7058 18.2617 10.9162 18.9328 11.3309V13.1304C18.704 13.0765 18.4752 12.974 18.4752 12.7797C18.4752 12.5534 18.2702 12.3699 18.0175 12.3699H15.2716C15.0189 12.3699 14.814 12.5534 14.814 12.7797C14.814 12.974 14.5851 13.0764 14.3563 13.1304V11.3313C15.0274 10.9165 15.8296 10.7059 16.6446 10.7305ZM14.3563 14.4191V13.9711C14.9066 13.9239 15.3924 13.6294 15.646 13.1895H17.6431C17.8967 13.6294 18.3825 13.9239 18.9328 13.9711V14.4191C18.9328 15.5535 18.3333 16.8781 16.6446 16.8781C14.9558 16.8781 14.3563 15.5535 14.3563 14.4191ZM16.6446 17.6977C17.0483 17.6977 17.4256 17.6355 17.7699 17.5195L17.9442 18.0036L16.6446 19.1674L15.3459 18.0044L15.5192 17.5195C15.8635 17.6355 16.2408 17.6977 16.6446 17.6977Z" fill="#4F82E3"/>
<path d="M2.9153 4.99286H4.15096L5.8223 6.48835C5.90811 6.5652 6.02446 6.60844 6.14585 6.60844C6.26725 6.60844 6.3836 6.5652 6.46941 6.48835L8.13892 4.99286H9.32241V4.17319H7.94946C7.82806 4.17319 7.71171 4.21643 7.6259 4.29327L6.14585 5.61909L4.6649 4.29327C4.57909 4.21643 4.46273 4.17319 4.34134 4.17319H2.9153V0.894501H14.8142V1.71417H15.7295V0.894501C15.7295 0.441786 15.3197 0.0748291 14.8142 0.0748291H2.9153C2.40977 0.0748291 2 0.441837 2 0.894501V4.17319C2 4.62591 2.40977 4.99286 2.9153 4.99286Z" fill="#4F82E3"/>
<path d="M16.6444 2.53381H11.1526C10.6471 2.53381 10.2373 2.90077 10.2373 3.35349V6.63217C10.2373 7.08489 10.6471 7.45185 11.1526 7.45185H14.6243L16.3209 8.97111C16.4067 9.04795 16.523 9.09119 16.6444 9.09119C16.7658 9.09119 16.8822 9.04795 16.968 8.97111L18.6457 7.46865L23.0515 7.45185C23.557 7.45185 23.9668 7.08489 23.9668 6.63217L18.4521 6.6498C18.3319 6.65057 18.2168 6.6937 18.1318 6.76988L16.6444 8.10185L15.1374 6.75226C15.0516 6.67541 14.9352 6.63217 14.8138 6.63217H11.1526V3.35349H16.6444V2.53381Z" fill="#4F82E3"/>
<path d="M30.3743 0.894531H18.4754C17.9698 0.894531 17.5601 1.26149 17.5601 1.7142V4.99289C17.5601 5.44561 17.9698 5.81256 18.4754 5.81256H25.1506L26.8472 7.33183C26.933 7.40867 27.0493 7.45191 27.1707 7.45191C27.2921 7.45191 27.4085 7.40867 27.4943 7.33183L29.1908 5.81256H30.3743C30.8798 5.81256 31.2896 5.44561 31.2896 4.99289V1.7142C31.2896 1.26154 30.8798 0.894531 30.3743 0.894531ZM30.3743 4.99289H29.0013C28.8799 4.99289 28.7636 5.03613 28.6778 5.11297L27.1707 6.46256L25.6637 5.11297C25.5779 5.03613 25.4615 4.99289 25.3401 4.99289H18.4754V1.7142H30.3743V4.99289Z" fill="#4F82E3"/>
<path d="M27.1706 2.94373H19.8481V3.7634H27.1706V2.94373Z" fill="#4F82E3"/>
<path d="M16.1875 4.58301H14.3569V5.40268H16.1875V4.58301Z" fill="#4F82E3"/>
<path d="M7.03399 2.12402H4.28809V2.9437H7.03399V2.12402Z" fill="#4F82E3"/>
</svg>
