<svg width="34" height="26" viewBox="0 0 34 26" fill="none" xmlns="http://www.w3.org/2000/svg">
<path fill-rule="evenodd" clip-rule="evenodd" d="M24.7404 2.38355L25.3543 0.383701C25.4391 0.107538 25.764 -0.0562182 26.0799 0.0177755C26.396 0.0917693 26.5835 0.375614 26.4988 0.651777L25.885 2.65163C25.8001 2.92799 25.4752 3.09135 25.1593 3.01755C24.8431 2.94336 24.6557 2.65972 24.7404 2.38355ZM7.68665 19.5249L10.6702 24.0395C11.3141 25.0147 12.7623 25.3758 13.9077 24.7974C15.041 24.2253 15.4305 22.9603 14.7748 21.9695L12.9975 19.2798L14.5367 18.5035C14.82 18.3604 14.9172 18.044 14.7535 17.7965L13.9831 16.6308C14.0749 16.6153 14.6784 16.5118 25.3146 14.6892L25.331 14.6864C26.6478 14.6239 27.4367 13.3658 26.7716 12.36L24.8026 9.38084L26.0609 7.71598C26.1845 7.55222 26.1919 7.34176 26.0796 7.17194L24.8947 5.37911C24.7825 5.20929 24.5693 5.10982 24.346 5.12135L22.0667 5.24083L19.8808 1.93335C19.5642 1.45421 18.997 1.1641 18.3638 1.15722C18.3562 1.15702 18.3488 1.15702 18.3411 1.15702C17.7292 1.15702 17.1738 1.42307 16.8447 1.8729L9.1053 10.4857L4.07382 13.0233C2.09488 14.021 1.40939 16.2388 2.55588 17.9722C3.60333 19.5572 5.81162 20.1807 7.68665 19.5249ZM13.7489 22.4872C14.0762 22.9817 13.8824 23.6145 13.3148 23.901C12.7452 24.1887 12.0199 24.012 11.6964 23.5221L8.73409 19.0394L10.7864 18.0043L12.6 20.7488L12.6837 20.8754L12.7809 21.0226C13.6646 22.3599 13.7488 22.4873 13.7489 22.4873L13.7468 22.4842C13.7444 22.4805 13.7416 22.4762 13.7489 22.4872ZM12.405 18.3832L11.8126 17.4868L12.8387 16.9692L13.4312 17.8657L12.405 18.3832ZM24.0516 6.17363L24.8704 7.41252L24.1403 8.37849L22.729 6.24298L24.0516 6.17363ZM17.8357 2.44039C17.9947 2.21315 18.247 2.1897 18.3492 2.19212C18.4504 2.19313 18.7024 2.22063 18.8545 2.4507L25.7455 12.8775C25.9699 13.217 25.6971 13.6438 25.247 13.6535C25.1925 13.6546 25.1578 13.6607 25.0774 13.675C25.0386 13.6819 24.9893 13.6906 24.922 13.7016L17.6327 2.67227C17.6851 2.61346 17.7218 2.57284 17.7487 2.54309C17.8004 2.48593 17.8158 2.46898 17.8357 2.44039ZM16.8443 3.54969L23.6929 13.9122L13.3569 15.6832L10.2141 10.928L16.8443 3.54969ZM3.58203 17.4546C3.32191 17.0614 3.18444 16.615 3.18444 16.1634C3.18444 15.2403 3.75237 14.3807 4.66628 13.9197L9.28397 11.5907L12.2462 16.0728L7.62856 18.402C6.21384 19.1153 4.39875 18.6903 3.58203 17.4546ZM8.27919 16.2809C8.11557 16.0334 7.75315 15.9485 7.46988 16.0914L6.44373 16.609C6.16092 16.7517 5.79781 16.6666 5.63442 16.4195C5.4708 16.1721 5.10839 16.0872 4.82512 16.2301C4.54185 16.373 4.44465 16.6896 4.60827 16.9371C5.09589 17.675 6.1836 17.9352 7.03619 17.5054L8.06234 16.9878C8.34561 16.8449 8.44281 16.5285 8.27919 16.2809ZM28.1517 3.86878L31.453 2.26397C31.7389 2.12487 32.0997 2.21464 32.2586 2.46452C32.4179 2.7142 32.3151 3.02938 32.0291 3.16847L28.728 4.77328C28.4415 4.91258 28.0809 4.82221 27.9221 4.57273C27.7629 4.32305 27.8659 4.00787 28.1517 3.86878ZM31.1069 7.62432L28.8178 7.08858C28.5017 7.01458 28.1767 7.17834 28.092 7.4545C28.0073 7.73066 28.195 8.01431 28.5112 8.0883L30.8004 8.62405C31.1184 8.69865 31.4417 8.53226 31.526 8.25812C31.6107 7.98196 31.423 7.69811 31.1069 7.62432Z" fill="#4F82E3"/>
</svg>
