<svg width="34" height="26" viewBox="0 0 34 26" fill="none" xmlns="http://www.w3.org/2000/svg">
<path fill-rule="evenodd" clip-rule="evenodd" d="M27.6486 19.334C28.4057 19.5185 29.0306 19.9639 29.3642 20.5568C30.9873 20.8438 32.1482 22.032 32.15 23.4081V24.6581C32.15 24.7687 32.0971 24.8747 32.0028 24.9528C31.9086 25.031 31.7807 25.0749 31.6475 25.0748H2.50248C2.22495 25.0748 2 24.8883 2 24.6582V23.1998C2.00247 21.5117 3.6195 20.1295 5.65445 20.0763C5.98104 19.2787 6.91763 18.7659 7.93042 18.83C8.55486 17.903 9.82793 17.4146 11.0843 17.62C11.6507 16.7189 12.6156 16.0345 13.7769 15.7102C13.3027 14.7638 13.0575 13.7495 13.055 12.7248V12.4831C13.0518 11.8471 13.67 11.329 14.4369 11.3248H15.5676V2.65325C14.6359 2.20735 14.0613 1.38352 14.0601 0.491479C14.0601 0.261353 14.285 0.0748291 14.5625 0.0748291H19.5875C19.8651 0.0748291 20.09 0.261353 20.09 0.491479C20.0888 1.38352 19.5142 2.20735 18.5825 2.65325V11.3247H19.7131C20.4801 11.3289 21.0983 11.847 21.095 12.483V12.7247C21.0855 14.3671 20.4647 15.9669 19.3173 17.3056C19.3257 17.3163 19.3349 17.3265 19.3441 17.3366C19.3545 17.348 19.3649 17.3595 19.3741 17.3717C20.1416 17.09 21.0163 17.0868 21.7869 17.3628C22.5575 17.6388 23.1542 18.1691 23.4331 18.8256C24.1904 18.8458 24.9044 19.1232 25.408 19.5926C26.0754 19.2437 26.8916 19.1494 27.6486 19.334ZM17.075 2.15818C17.9916 2.15818 18.7922 1.64407 19.0214 0.908179H15.1286C15.3578 1.64407 16.1584 2.15818 17.075 2.15818ZM16.5725 2.95388V11.3234H17.5775V2.95388C17.4116 2.9781 17.2435 2.99065 17.075 2.99153C16.9065 2.99065 16.7385 2.97805 16.5725 2.95388ZM17.5775 13.4082V12.1582H16.5725V13.4082C16.5725 13.6383 16.7975 13.8248 17.075 13.8248C17.3525 13.8248 17.5775 13.6383 17.5775 13.4082ZM14.1661 12.255C14.0952 12.3161 14.0569 12.3983 14.06 12.4831H14.0599V12.7247C14.0607 13.6643 14.2899 14.5941 14.7337 15.4585L14.7689 15.5228C16.203 15.3696 17.6411 15.7806 18.6568 16.634C19.5848 15.475 20.083 14.1159 20.09 12.7248V12.4831C20.0931 12.3983 20.0548 12.3161 19.9839 12.255C19.913 12.1938 19.8154 12.159 19.7131 12.1582H18.5825V13.4082C18.5825 14.0985 17.9076 14.6582 17.075 14.6582C16.2424 14.6582 15.5675 14.0985 15.5675 13.4082V12.1582H14.4369C14.3346 12.159 14.237 12.1938 14.1661 12.255ZM3.00502 24.2415H31.145H31.145V23.4081C31.1439 22.3578 30.2001 21.4724 28.9432 21.3427C28.7522 21.3231 28.5914 21.2149 28.529 21.0639C28.339 20.5915 27.8694 20.2333 27.2858 20.1157C26.7022 19.9981 26.0867 20.1376 25.6563 20.4849C25.545 20.5739 25.3905 20.6154 25.2374 20.5975C25.0844 20.5796 24.9497 20.5042 24.8724 20.3932C24.5646 19.9388 23.9848 19.6577 23.3563 19.6581C23.2973 19.6596 23.2384 19.6646 23.1801 19.673L23.1244 19.6795C22.8601 19.7083 22.6144 19.5614 22.5638 19.3444C22.4375 18.7927 21.9841 18.3311 21.3581 18.1171C20.732 17.903 20.018 17.9653 19.4594 18.2828C19.3381 18.3518 19.1863 18.3732 19.0442 18.3414C18.9021 18.3096 18.7841 18.2277 18.7211 18.1174C18.0846 16.9956 16.7077 16.2925 15.2131 16.326C13.7185 16.3594 12.3894 17.1231 11.8267 18.2717C11.7259 18.4768 11.4491 18.5807 11.1966 18.5081C10.9869 18.4445 10.7658 18.4107 10.5425 18.4082C9.72411 18.4071 8.98732 18.8194 8.68247 19.4492C8.58795 19.6427 8.33521 19.7483 8.09142 19.696C7.74552 19.6153 7.37436 19.6646 7.07609 19.8307C6.77783 19.9969 6.58257 20.2632 6.54193 20.5593C6.50554 20.7788 6.26852 20.9365 6.00212 20.9183C5.92504 20.9131 5.84754 20.9082 5.76875 20.9082C4.24311 20.9096 3.00673 21.9348 3.00502 23.1998V24.2415ZM17.1279 18.2534C17.0441 18.3393 16.9225 18.3941 16.79 18.4057C16.6575 18.4173 16.5249 18.3847 16.4213 18.3153C16.1092 18.1046 15.7187 17.9902 15.3162 17.9916C14.5709 17.9922 13.9066 18.3815 13.6573 18.9639C13.5975 19.1043 13.4519 19.2074 13.2753 19.2346C13.0988 19.2618 12.9182 19.2089 12.8015 19.0957C12.6849 18.9825 12.6499 18.8263 12.7098 18.686C13.0091 17.9845 13.7004 17.4472 14.5638 17.2448C15.4272 17.0423 16.3554 17.1999 17.0534 17.6675C17.157 17.7369 17.223 17.8377 17.237 17.9476C17.251 18.0575 17.2118 18.1675 17.1279 18.2534ZM23.105 20.4915C22.8404 20.4915 22.5803 20.5492 22.351 20.6587C22.1955 20.7331 22.0995 20.8707 22.0995 21.0197C22.0994 21.1686 22.1952 21.3062 22.3508 21.3807C22.5064 21.4552 22.698 21.4551 22.8535 21.3806C23.009 21.3062 23.2006 21.3063 23.356 21.3807C23.5115 21.4551 23.6074 21.5927 23.6075 21.7415C23.6075 21.9717 23.8324 22.1582 24.11 22.1582C24.3875 22.1582 24.6125 21.9717 24.6125 21.7415C24.6116 21.0515 23.9372 20.4923 23.105 20.4915ZM27.8786 22.3256C28.1078 22.2159 28.3677 22.1581 28.6323 22.1582C29.4645 22.1589 30.1389 22.7181 30.1398 23.4082C30.1398 23.6384 29.9149 23.8249 29.6374 23.8249C29.3598 23.8249 29.1349 23.6384 29.1349 23.4082C29.1347 23.2594 29.0389 23.1219 28.8835 23.0475C28.7281 22.9731 28.5367 22.9729 28.3811 23.0471C28.2257 23.1216 28.0341 23.1217 27.8786 23.0473C27.7231 22.9729 27.6273 22.8353 27.6273 22.6864C27.6273 22.5376 27.7231 22.4 27.8786 22.3256ZM9.13457 20.5206C8.55625 20.4234 7.95767 20.573 7.54045 20.919C7.12318 21.2649 6.94281 21.7613 7.06006 22.2408C7.09562 22.3867 7.22241 22.5057 7.39253 22.5531C7.56271 22.6004 7.75039 22.569 7.885 22.4705C8.01956 22.372 8.08056 22.2214 8.04494 22.0755C8.03492 22.0341 8.02992 21.992 8.02998 21.9498C8.03045 21.6048 8.36763 21.3252 8.78373 21.3248C8.83466 21.3248 8.88543 21.329 8.93536 21.3372C9.20736 21.3828 9.47241 21.237 9.52741 21.0115C9.58241 20.7859 9.40657 20.5662 9.13457 20.5206ZM15.9029 20.2053C16.1986 20.1187 16.5101 20.0746 16.8237 20.0748C17.7207 20.0753 18.5617 20.4364 19.0796 21.0436C19.5976 21.6508 19.7283 22.4286 19.4301 23.1301C19.3711 23.2711 19.2254 23.3751 19.0485 23.4027C18.8716 23.4303 18.6904 23.3773 18.5735 23.2638C18.4566 23.1502 18.4219 22.9935 18.4825 22.853C18.7075 22.323 18.5458 21.7331 18.0667 21.3358C17.5875 20.9386 16.8761 20.8045 16.237 20.991C15.9758 21.0663 15.6902 20.9524 15.5982 20.7361C15.5063 20.5198 15.6424 20.2825 15.9029 20.2053Z" fill="#4F82E3"/>
</svg>
