<svg width="34" height="26" viewBox="0 0 34 26" fill="none" xmlns="http://www.w3.org/2000/svg">
<path fill-rule="evenodd" clip-rule="evenodd" d="M9.46603 0.0748291H23.9826C24.2909 0.0748291 24.541 0.271324 24.5409 0.513409V4.02222H32.9418C33.2499 4.02222 33.5001 4.21871 33.5001 4.4608V23.7591C33.5001 24.4845 32.7486 25.0749 31.8251 25.0749H27.3585C26.4351 25.0749 25.6835 24.4845 25.6835 23.7591C25.6835 23.0336 26.4351 22.4433 27.3585 22.4433C27.4551 22.4433 27.5512 22.4499 27.6455 22.463C28.0308 21.9178 28.7638 21.5661 29.5918 21.5661C30.4199 21.5661 31.1529 21.9178 31.5382 22.463C31.6325 22.4499 31.7286 22.4433 31.8251 22.4433C32.0222 22.4433 32.2082 22.4748 32.3835 22.524V4.89938H24.5409V23.3204C24.5409 23.3932 24.5183 23.4618 24.4784 23.5222C24.5343 23.5905 24.5668 23.6718 24.5668 23.7591C24.5668 24.0012 24.3167 24.1976 24.0085 24.1976H8.93352V24.6362C8.93352 24.8783 8.68338 25.0748 8.37521 25.0748C8.06703 25.0748 7.81689 24.8783 7.81689 24.6362V23.759C7.81689 23.5169 8.06703 23.3204 8.37521 23.3204H8.90771C8.90771 23.3204 8.90771 23.3204 8.90771 23.3204V4.89943H1.11662V13.2327C1.11662 13.4748 0.866484 13.6713 0.55831 13.6713C0.250137 13.6713 0 13.4748 0 13.2327V4.4608C0 4.21871 0.250137 4.02222 0.55831 4.02222H8.90771V0.513409C8.90771 0.271324 9.15785 0.0748291 9.46603 0.0748291ZM10.0243 23.3204H13.3998V18.0572H11.7248C11.4166 18.0572 11.1665 17.8607 11.1665 17.6186C11.1665 17.3765 11.4166 17.1801 11.7248 17.1801H21.7747C22.0829 17.1801 22.333 17.3765 22.333 17.6186C22.333 17.8607 22.0829 18.0572 21.7747 18.0572H20.0997L20.0452 23.3204H23.4243C23.4243 23.3204 23.4243 23.3204 23.4243 23.3204V0.951988H10.0243V23.3204C10.0243 23.3204 10.0243 23.3204 10.0243 23.3204ZM18.425 4.89936H20.6583C20.9665 4.89936 21.2166 4.70287 21.2166 4.46078V1.8292C21.2166 1.58712 20.9665 1.39062 20.6583 1.39062H18.425C18.1168 1.39062 17.8667 1.58712 17.8667 1.8292V4.46078C17.8667 4.70287 18.1168 4.89936 18.425 4.89936ZM18.9833 2.26778H20.1V4.02215H18.9833V2.26778ZM12.8415 10.1624C12.5333 10.1624 12.2832 9.96593 12.2832 9.72385H12.2833V7.09227C12.2833 6.85018 12.5334 6.65369 12.8416 6.65369H15.0749C15.3831 6.65369 15.6332 6.85018 15.6332 7.09227V9.72385C15.6332 9.96593 15.3831 10.1624 15.0749 10.1624H12.8415ZM14.5166 7.5309H13.3999V9.28527H14.5166V7.5309ZM18.9286 23.3204L18.9831 18.0572H14.5164V23.3204H18.9286ZM27.3581 20.6888C27.0499 20.6888 26.7998 20.4923 26.7998 20.2502V17.6186C26.7998 17.3765 27.0499 17.1801 27.3581 17.1801H29.5914C29.8996 17.1801 30.1497 17.3765 30.1497 17.6186V20.2502C30.1497 20.4923 29.8996 20.6888 29.5914 20.6888H27.3581ZM29.0332 18.0573H27.9165V19.8116H29.0332V18.0573ZM2.79168 14.5485C0.0317988 14.5485 0 20.1932 0 20.2502C0 21.3094 0.960898 22.195 2.23331 22.3989V24.6362C2.23331 24.8783 2.48344 25.0748 2.79162 25.0748C3.09979 25.0748 3.34993 24.8783 3.34993 24.6362V22.3989C4.62234 22.195 5.58324 21.3094 5.58324 20.2502C5.5833 20.1932 5.5515 14.5485 2.79168 14.5485ZM2.79168 21.566C1.86821 21.566 1.11669 20.9756 1.11669 20.2502C1.11669 18.0651 1.86376 15.4256 2.79168 15.4256C3.71961 15.4256 4.46668 18.0651 4.46668 20.2502C4.46668 20.9756 3.71516 21.566 2.79168 21.566ZM3.90841 11.9169H6.14178C6.44995 11.9169 6.70009 12.1134 6.70002 12.3555V14.9871C6.70002 15.2292 6.44989 15.4257 6.14171 15.4257C5.83354 15.4257 5.5834 15.2292 5.5834 14.9871V12.7941H4.46672V13.2327C4.46672 13.4747 4.21658 13.6712 3.90841 13.6712C3.60023 13.6712 3.3501 13.4747 3.3501 13.2327V12.3554C3.3501 12.1134 3.60023 11.9169 3.90841 11.9169ZM27.3581 10.1625H29.5914C29.8996 10.1625 30.1497 9.96605 30.1497 9.72397V7.09239C30.1497 6.8503 29.8996 6.65381 29.5914 6.65381H27.3581C27.0499 6.65381 26.7998 6.8503 26.7998 7.09239V9.72397C26.7998 9.96605 27.0499 10.1625 27.3581 10.1625ZM27.9165 7.53097H29.0332V9.28534H27.9165V7.53097ZM3.90841 6.65369H6.14178C6.44995 6.65369 6.70009 6.85018 6.70002 7.09227V9.72385C6.70002 9.96593 6.44989 10.1624 6.14171 10.1624H3.90841C3.60023 10.1624 3.3501 9.96593 3.3501 9.72385V7.09227C3.3501 6.85018 3.60023 6.65369 3.90841 6.65369ZM4.46678 9.28527H5.5834H5.58347V7.5309H4.46678V9.28527ZM17.8667 9.72385C17.8667 9.96593 18.1168 10.1624 18.425 10.1624H20.6583C20.9665 10.1624 21.2166 9.96593 21.2166 9.72385V7.09227C21.2166 6.85018 20.9665 6.65369 20.6583 6.65369H18.425C18.1168 6.65369 17.8667 6.85018 17.8667 7.09227V9.72385ZM18.9833 7.5309H20.1V9.28527H18.9833V7.5309ZM27.3584 24.1976H31.8251C32.1327 24.1976 32.3834 24.0007 32.3835 23.7591C32.3835 23.4332 31.886 23.2078 31.5225 23.392C31.3695 23.4692 31.178 23.4832 31.01 23.4297C30.8413 23.3762 30.7168 23.2613 30.6761 23.1222C30.5582 22.7227 30.1121 22.4433 29.5918 22.4433C29.0714 22.4433 28.6253 22.7227 28.5075 23.1222C28.4667 23.2613 28.3422 23.3762 28.1736 23.4297C28.005 23.4832 27.814 23.4692 27.661 23.392C27.5672 23.3446 27.4656 23.3205 27.3584 23.3205C27.0508 23.3205 26.8001 23.5174 26.8001 23.7591C26.8001 24.0007 27.0508 24.1976 27.3584 24.1976ZM18.425 15.4256C18.1168 15.4256 17.8667 15.2291 17.8667 14.987V12.3554C17.8667 12.1134 18.1168 11.9169 18.425 11.9169H20.6583C20.9665 11.9169 21.2166 12.1134 21.2166 12.3554V14.987C21.2166 15.2291 20.9665 15.4256 20.6583 15.4256H18.425ZM20.1 12.7941H18.9833V14.5485H20.1V12.7941ZM12.842 4.89936H15.0753C15.3835 4.89936 15.6336 4.70287 15.6336 4.46078V1.8292C15.6336 1.58712 15.3835 1.39062 15.0753 1.39062H12.842C12.5338 1.39062 12.2837 1.58712 12.2837 1.8292V4.46078C12.2836 4.70287 12.5338 4.89936 12.842 4.89936ZM13.4003 2.26778H14.517V4.02215H13.4003V2.26778ZM16.1919 20.2503C16.1919 20.1362 16.2533 20.0222 16.3538 19.9389C16.566 19.7766 16.9345 19.7766 17.1467 19.9389C17.2472 20.0222 17.3087 20.1362 17.3087 20.2503C17.3087 20.3643 17.2472 20.4784 17.1467 20.5617C17.0406 20.6407 16.8955 20.6889 16.7503 20.6889C16.6051 20.6889 16.4599 20.6407 16.3538 20.5617C16.2533 20.4783 16.1919 20.3643 16.1919 20.2503ZM12.2832 14.987C12.2832 15.2291 12.5333 15.4256 12.8415 15.4256H15.0749C15.3831 15.4256 15.6332 15.2291 15.6332 14.987V12.3554C15.6332 12.1134 15.3831 11.9169 15.0749 11.9169H12.8416C12.5334 11.9169 12.2833 12.1134 12.2833 12.3554V14.987H12.2832ZM13.3999 12.7941H14.5166V14.5485H13.3999V12.7941ZM26.7998 14.987C26.7998 15.2291 27.0499 15.4256 27.3581 15.4256H29.5914C29.8996 15.4256 30.1497 15.2291 30.1497 14.987V12.3554C30.1497 12.1134 29.8996 11.9169 29.5914 11.9169H27.3581C27.0499 11.9169 26.7998 12.1134 26.7998 12.3554V14.987ZM27.9165 12.7941H29.0332V14.5485H27.9165V12.7941Z" fill="#4F82E3"/>
</svg>
