<svg width="34" height="26" viewBox="0 0 34 26" fill="none" xmlns="http://www.w3.org/2000/svg">
<path fill-rule="evenodd" clip-rule="evenodd" d="M25.6487 0.103404C25.8097 0.158043 25.9317 0.284849 25.9741 0.441832C26.1339 1.03192 26.9093 4.03114 26.4865 5.13104C26.229 5.80086 25.6863 6.31839 24.9983 6.57049C24.9108 7.57957 24.6738 8.86566 24.3377 10.1598C25.0516 10.2891 25.5929 10.8848 25.5929 11.5983C25.5929 11.9894 25.4321 12.3572 25.14 12.634C24.974 12.7911 24.777 12.9081 24.5622 12.9799V22.6334C24.5622 23.9796 23.4061 25.0748 21.9852 25.0748H11.6774C10.2564 25.0748 9.1004 23.9796 9.1004 22.6334V12.9791C8.50054 12.7775 8.06962 12.2347 8.06962 11.5982C8.06962 11.2071 8.23052 10.8393 8.52259 10.5625C8.75169 10.3455 9.04005 10.2054 9.35289 10.1548L8.81657 8.14476L8.0171 5.318C8.01236 5.30116 8.00875 5.28411 8.00591 5.26688C8.0054 5.26376 8.00505 5.26064 8.0047 5.25751C8.00448 5.25559 8.00426 5.25367 8.00401 5.25174C8.00236 5.23939 8.00107 5.22704 8.00045 5.21458C8.00014 5.20892 8.00009 5.20326 8.00004 5.19759C7.99988 5.18543 8.00019 5.17332 8.00097 5.16112L8.00097 5.16109C8.00133 5.15568 8.00169 5.15027 8.00225 5.14486C8.00354 5.13206 8.0055 5.11932 8.00787 5.10658C8.00817 5.10504 8.00836 5.10348 8.00855 5.10191C8.00876 5.1002 8.00897 5.09847 8.00932 5.09676L8.93341 0.671959C8.97181 0.488072 9.11792 0.341246 9.30939 0.294127C9.50086 0.247008 9.70392 0.307848 9.83195 0.450767L12.8903 3.86483C12.8915 3.86613 12.8925 3.86752 12.8936 3.86891C12.8945 3.87012 12.8954 3.87134 12.8964 3.87249C12.9042 3.88158 12.9116 3.89081 12.9187 3.90033C12.9222 3.90506 12.9256 3.9098 12.929 3.91463C12.9356 3.92425 12.9417 3.93412 12.9475 3.94413C12.9482 3.94528 12.9489 3.94642 12.9496 3.94757C12.9519 3.95147 12.9542 3.95536 12.9564 3.95936C12.9621 3.97 12.9671 3.98084 12.972 3.99183C12.9728 3.99371 12.9737 3.99557 12.9745 3.99742C12.9759 4.00029 12.9772 4.00315 12.9784 4.00609C12.9848 4.02186 12.9904 4.03788 12.9951 4.05414L12.9952 4.05443L13.7956 6.88402L13.7969 6.88885L14.6772 10.1334H14.7697V0.563121C14.7697 0.293443 15.0005 0.0748398 15.2851 0.0748398H19.4082C19.6928 0.0748398 19.9236 0.293443 19.9236 0.563121V8.63621C20.4996 7.47777 21.1541 6.29212 21.786 5.43343C21.4492 4.82884 21.3922 4.11512 21.6431 3.46126C22.065 2.36351 24.6555 0.526256 25.1705 0.169078C25.3085 0.073375 25.4877 0.0488144 25.6487 0.103404ZM23.1834 6.59031C22.9243 6.50096 22.6849 6.37406 22.4718 6.21522C21.8499 7.11058 21.1229 8.44378 20.3358 10.1334H23.282C23.6073 8.92098 23.8441 7.70892 23.9475 6.73538C23.6886 6.72415 23.4311 6.67572 23.1834 6.59031ZM18.8929 1.0514H15.8005V10.1334H18.8929V9.01038H17.8621C17.5775 9.01038 17.3467 8.79178 17.3467 8.5221C17.3467 8.25242 17.5775 8.03382 17.8621 8.03382H18.8929V7.05726H17.8621C17.5775 7.05726 17.3467 6.83865 17.3467 6.56898C17.3467 6.2993 17.5775 6.0807 17.8621 6.0807H18.8929V5.10413H17.8621C17.5775 5.10413 17.3467 4.88553 17.3467 4.61585C17.3467 4.34618 17.5775 4.12757 17.8621 4.12757H18.8929V3.15101H17.8621C17.5775 3.15101 17.3467 2.93241 17.3467 2.66273C17.3467 2.39305 17.5775 2.17445 17.8621 2.17445H18.8929V1.0514ZM11.8517 4.21473L9.73722 1.85428L9.09757 4.91722C9.57204 5.09432 10.0918 5.12323 10.5936 4.99583C11.0974 4.868 11.5339 4.59515 11.8517 4.21473ZM9.96688 6.05125C9.73304 6.05125 9.5005 6.02806 9.27218 5.98275L9.81309 7.89525L9.81494 7.90194L10.4103 10.1334H13.6129L12.7993 7.13446L12.2588 5.22396C11.8633 5.55936 11.388 5.80526 10.8604 5.93914C10.5648 6.01414 10.2648 6.05125 9.96688 6.05125ZM21.9852 24.0983C22.8378 24.0983 23.5314 23.4411 23.5314 22.6334V13.0631H10.1312V22.6334C10.1312 23.4411 10.8248 24.0983 11.6774 24.0983H21.9852ZM24.4111 11.9434C24.5085 11.8512 24.5622 11.7285 24.5622 11.5983C24.5622 11.329 24.3309 11.11 24.0468 11.11H23.6837L23.6806 11.1101L23.6787 11.11H19.552L19.5502 11.1101L19.5477 11.11H14.2792L14.2772 11.1101L14.2742 11.11H9.61579C9.47829 11.11 9.34892 11.1608 9.25146 11.2532C9.15405 11.3454 9.1004 11.468 9.1004 11.5983C9.1004 11.8675 9.33161 12.0866 9.61579 12.0866H24.0468C24.1843 12.0866 24.3136 12.0357 24.4111 11.9434ZM24.3958 5.72669C24.917 5.61771 25.336 5.2702 25.5179 4.79696C25.7107 4.29535 25.4572 2.70179 25.1562 1.40599C24.062 2.22108 22.8048 3.29266 22.6117 3.7952C22.4345 4.25706 22.5126 4.76947 22.8207 5.16561L22.8209 5.1659C23.0014 5.39827 23.2487 5.57357 23.536 5.67269C23.8134 5.76825 24.1106 5.78695 24.3958 5.72669ZM11.1621 16.4811C11.1621 16.2114 11.3929 15.9928 11.6775 15.9928C11.9621 15.9928 12.1929 16.2114 12.1929 16.4811V22.6334C12.1929 22.9031 11.9622 23.1217 11.6775 23.1217C11.3929 23.1217 11.1621 22.9031 11.1621 22.6334V16.4811Z" fill="#4F82E3"/>
</svg>
