<svg width="27" height="27" viewBox="0 0 27 27" fill="none" xmlns="http://www.w3.org/2000/svg">
<path fill-rule="evenodd" clip-rule="evenodd" d="M22.459 10.2406H24.9175C25.663 10.2406 26.2686 10.8476 26.2686 11.5949V14.7358C26.2686 15.4831 25.663 16.0901 24.9175 16.0901H22.459C22.0643 16.0901 21.7366 16.3096 21.587 16.6759C21.4374 17.0404 21.5134 17.4262 21.7913 17.7048L23.5298 19.4474C23.784 19.7046 23.9245 20.0453 23.9245 20.4049C23.9245 20.7688 23.784 21.1095 23.5298 21.3643L21.314 23.5854C20.8032 24.0974 19.9123 24.0974 19.4015 23.5854L17.663 21.8428C17.3851 21.5643 17.0002 21.4856 16.6342 21.638C16.2711 21.7904 16.0522 22.1165 16.0522 22.5121V24.9764C16.0522 25.7236 15.4466 26.3307 14.7011 26.3307H11.5676C10.8221 26.3307 10.2164 25.7236 10.2164 24.9764V22.5121C10.2164 22.1165 9.99752 21.7904 9.63449 21.638C9.26842 21.4881 8.88351 21.5643 8.60561 21.8428L6.8671 23.5854C6.35631 24.0974 5.46546 24.0974 4.95467 23.5854L2.73881 21.3643C2.48463 21.1095 2.34417 20.7688 2.34417 20.4049C2.34417 20.0453 2.48463 19.7022 2.73881 19.4474L4.47733 17.7048C4.75522 17.4262 4.83366 17.0404 4.68164 16.6759C4.52962 16.3096 4.2043 16.0901 3.81026 16.0901H1.35177C0.605652 16.0901 0 15.4831 0 14.7358V11.5949C0 10.8476 0.605652 10.2406 1.35177 10.2406H3.81026C4.2043 10.2406 4.53205 10.0211 4.68164 9.65725C4.83123 9.29032 4.75522 8.9045 4.47733 8.62594L2.73881 6.88332C2.48463 6.62854 2.34417 6.28782 2.34417 5.92637C2.34417 5.56432 2.48463 5.22116 2.73881 4.96638L4.95467 2.74528C5.46546 2.23329 6.35631 2.23329 6.8671 2.74528L8.60561 4.4879C8.88351 4.76646 9.26842 4.84508 9.63449 4.6927C9.99752 4.54032 10.2164 4.21423 10.2164 3.81926V1.35497C10.2164 0.607083 10.8221 0 11.5676 0H14.7011C15.4466 0 16.0522 0.607083 16.0522 1.35497V3.81926C16.0522 4.21423 16.2711 4.54032 16.6366 4.6927C17.0002 4.84508 17.3851 4.76646 17.663 4.4879L19.4015 2.74528C19.9123 2.23329 20.8032 2.23329 21.314 2.74528L23.5298 4.96638C23.784 5.2236 23.9245 5.56432 23.9245 5.92637C23.9245 6.28782 23.784 6.62854 23.5298 6.88332L21.7913 8.62594C21.5134 8.9045 21.4374 9.29032 21.587 9.65725C21.739 10.0211 22.0643 10.2406 22.459 10.2406ZM24.9175 15.1167C25.1261 15.1167 25.2975 14.9455 25.2975 14.7358V11.5949C25.2975 11.3859 25.1261 11.214 24.9175 11.2164H22.459C21.6703 11.2164 20.9911 10.7617 20.6889 10.0309C20.3848 9.29764 20.5466 8.4949 21.1048 7.93597L22.8409 6.19517C22.9911 6.04767 22.9911 5.80447 22.8409 5.65697L20.6274 3.43587C20.4803 3.28837 20.2377 3.28837 20.0905 3.43587L18.352 5.17849C17.7938 5.73803 16.9929 5.89773 16.2638 5.59297C15.5347 5.29064 15.0811 4.61164 15.0811 3.81926V1.35497C15.0811 1.14529 14.9102 0.976453 14.7011 0.976453H11.5676C11.359 0.976453 11.1875 1.14529 11.1875 1.35497V3.81926C11.1875 4.61164 10.7363 5.29064 10.0048 5.59297C9.27572 5.89773 8.47548 5.73559 7.91726 5.17605L6.18057 3.43587C6.03098 3.28837 5.79079 3.28837 5.6412 3.43587L3.42777 5.65453C3.28062 5.80447 3.28062 6.04523 3.42777 6.19517L5.16629 7.93597C5.72451 8.4949 5.88383 9.29764 5.57978 10.0285C5.27817 10.7617 4.60077 11.214 3.81026 11.214H1.35177C1.14259 11.214 0.974151 11.3859 0.974151 11.5949V14.7358C0.974151 14.9455 1.14259 15.1167 1.35177 15.1167H3.81026C4.60077 15.1167 5.27817 15.5714 5.57978 16.3023C5.88383 17.0331 5.72451 17.8358 5.16629 18.3953L3.42777 20.1355C3.28062 20.2855 3.28062 20.5262 3.42777 20.6762L5.6412 22.8948C5.79079 23.0429 6.03098 23.0454 6.18057 22.8948L7.91726 21.1522C8.28758 20.781 8.76736 20.5854 9.2593 20.5854C9.50862 20.5854 9.76036 20.6353 10.0048 20.7377C10.7363 21.0407 11.1875 21.7215 11.1875 22.5121V24.9764C11.1875 25.1854 11.359 25.3573 11.5676 25.3573H14.7011C14.9102 25.3573 15.0811 25.1854 15.0811 24.9764V22.5121C15.0811 21.7215 15.5347 21.0407 16.2638 20.7377C16.9929 20.4354 17.7938 20.5927 18.352 21.1547L20.0905 22.8948C20.2377 23.0454 20.4779 23.0429 20.6274 22.8948L22.8409 20.6762C22.9911 20.5262 22.9911 20.2855 22.8409 20.138L21.1048 18.3953C20.5441 17.8358 20.3848 17.0331 20.6889 16.3023C20.9911 15.5714 21.6703 15.1167 22.459 15.1167H24.9175ZM8.75525 13.1669C8.75525 10.7452 10.72 8.77588 13.1359 8.77588C15.5488 8.77588 17.5135 10.7452 17.5135 13.1669C17.5135 15.5854 15.5488 17.5548 13.1359 17.5548C10.72 17.5548 8.75525 15.5854 8.75525 13.1669ZM9.7294 13.1669C9.7294 15.0472 11.2569 16.5784 13.1359 16.5784C15.0124 16.5784 16.5393 15.0472 16.5393 13.1669C16.5393 11.2834 15.0124 9.75233 13.1359 9.75233C11.2569 9.75233 9.7294 11.2834 9.7294 13.1669Z" fill="white"/>
</svg>
