<svg width="29" height="28" viewBox="0 0 29 28" fill="none" xmlns="http://www.w3.org/2000/svg">
<path fill-rule="evenodd" clip-rule="evenodd" d="M28.5487 3.23396C28.3574 1.58405 27.066 0.29841 25.4086 0.10798C24.0811 -0.0448521 22.0581 -0.111258 19.9597 0.439035C17.5804 1.06306 15.5999 2.33161 14.0731 4.20905C12.9895 5.54157 12.0758 6.72907 11.3094 7.76862C10.3824 7.357 9.36108 7.56648 8.56616 8.35798C8.0658 8.85652 7.01514 10.2384 6.19006 11.6021C4.66504 14.1226 4.93188 14.8551 5.26501 15.1866C5.40076 15.3218 5.60303 15.4454 5.96375 15.4434L3.27075 18.1246C2.44641 18.9449 2.44641 20.2803 3.27075 21.1011C4.09509 21.9219 5.43652 21.9219 6.26086 21.1011L6.7854 20.5792C7.11658 20.2496 7.65564 20.2496 7.98682 20.5792C8.31799 20.9088 8.31799 21.4454 7.98682 21.775L5.81702 23.9351C4.99268 24.7559 4.99268 26.0914 5.81702 26.9122C6.64148 27.733 7.98279 27.733 8.80725 26.9122L10.1689 25.5562L11.5054 24.2257L13.1451 22.5928C13.1432 22.9522 13.2672 23.1534 13.403 23.2886C13.7362 23.6207 14.472 23.8858 17.0035 22.3677C18.3735 21.5465 19.7617 20.5001 20.2621 20.002C21.051 19.2164 21.2604 18.1881 20.8535 17.2711C21.574 16.7452 22.3647 16.149 23.2253 15.4757C23.6124 15.1729 24.0138 14.8546 24.4292 14.5196C26.3152 12.9996 27.5892 11.0279 28.2159 8.65876C28.7687 6.56989 28.7019 4.55573 28.5487 3.23396ZM5.87451 14.5801C5.81677 14.4244 5.9137 13.6871 7.00525 11.9122C7.78137 10.6509 8.73499 9.399 9.17346 8.96247C9.65576 8.48249 10.2349 8.31892 10.7865 8.48689C9.8689 9.76325 9.19873 10.7828 8.73035 11.5372C8.33203 12.1783 8.19006 12.9117 8.28845 13.6129C6.69763 14.5499 6.02258 14.6343 5.87451 14.5801ZM13.7 20.8316L10.8981 23.6217L9.56189 24.9517L8.19995 26.3077C7.71045 26.795 6.91382 26.795 6.42407 26.3077C5.93469 25.8199 5.93469 25.0269 6.42407 24.5396L8.59387 22.3795C9.26001 21.7164 9.26001 20.6378 8.59387 19.9747C7.92773 19.3111 6.84424 19.3111 6.17834 19.9747L5.65356 20.4967C5.16394 20.9844 4.36743 20.9844 3.87781 20.4971C3.38818 20.0093 3.38818 19.2164 3.87781 18.7291L7.73596 14.8878C7.88586 14.814 8.04468 14.7315 8.21326 14.6397C8.31653 14.5836 8.42346 14.524 8.53418 14.4605C8.68762 14.7999 8.90356 15.1163 9.18152 15.3931L9.95874 16.1671C8.77295 18.2759 9.02454 18.9298 9.33398 19.2379C9.64331 19.5455 10.2999 19.7965 12.4185 18.6158L13.1954 19.3897C13.4735 19.6661 13.7916 19.8814 14.1323 20.0342C13.9641 20.3243 13.8223 20.5884 13.7029 20.8292L13.7 20.8316ZM11.0742 15.9634C11.8503 14.7017 12.804 13.4503 13.2424 13.0133C14.1188 12.1407 15.0609 12.4595 15.6013 12.9981C16.1421 13.5362 16.4623 14.4742 15.5858 15.3463C15.1472 15.7833 13.8898 16.7325 12.6228 17.505C10.8403 18.5919 10.0996 18.6881 9.94348 18.6309C9.88574 18.4752 9.98267 17.7379 11.0742 15.9634ZM19.6547 19.3975C19.2163 19.8341 17.9587 20.7838 16.6919 21.5562C14.9093 22.6431 14.1686 22.7393 14.0125 22.6822C13.958 22.5347 14.0425 21.8629 14.9835 20.2784C15.6884 20.3765 16.4248 20.2349 17.0686 19.8389C17.8264 19.3721 18.8507 18.7051 20.1334 17.7911C20.3037 18.3394 20.1409 18.9136 19.6547 19.3975ZM27.7666 6.05525L23.3781 1.6861C23.2103 1.51911 22.9385 1.51911 22.7708 1.6861C22.603 1.8531 22.603 2.1236 22.7708 2.2906L27.6495 7.14802C27.5863 7.57185 27.5012 8.00495 27.3856 8.44099C26.8065 10.6304 25.6299 12.4517 23.8889 13.8551C20.5033 16.5836 18.0657 18.2198 16.6169 19.1114C15.7124 19.6685 14.5554 19.5342 13.8027 18.7847L13.1816 18.1666C14.468 17.3717 15.7225 16.4195 16.1931 15.9512C17.2495 14.899 17.256 13.4361 16.2086 12.3931C15.1614 11.3507 13.6919 11.357 12.6351 12.4092C12.1649 12.8775 11.2084 14.1265 10.4099 15.4073L9.78882 14.7886C9.03613 14.0396 8.90137 12.8873 9.46057 11.9869C10.3564 10.5445 12 8.11775 14.7406 4.74714C16.15 3.01374 17.9796 1.84235 20.1783 1.26569C22.1476 0.749581 24.0558 0.813058 25.3098 0.957101C26.5692 1.10212 27.5502 2.07868 27.6957 3.3321C27.7798 4.05866 27.8357 5.00495 27.7666 6.05525ZM17.2909 5.5489C18.8879 3.95905 21.4866 3.95905 23.0836 5.5489C24.6807 7.13923 24.6807 9.72566 23.0836 11.316C21.4863 12.9058 18.8879 12.9058 17.2909 11.316C15.6938 9.72614 15.6938 7.13923 17.2909 5.5489ZM17.8982 6.15339C16.6359 7.41023 16.6359 9.45515 17.8982 10.7115C19.1604 11.9683 21.2141 11.9683 22.4764 10.7115C23.7386 9.45466 23.7386 7.41023 22.4764 6.15339C21.2141 4.89704 19.1604 4.89704 17.8982 6.15339ZM18.505 6.75788C19.4324 5.83454 20.9414 5.83503 21.8689 6.75788C22.7964 7.68122 22.7964 9.18366 21.8689 10.107C20.9414 11.0303 19.4324 11.0303 18.505 10.107C17.5775 9.18366 17.5775 7.68122 18.505 6.75788ZM19.1122 7.36237C18.5194 7.95271 18.5194 8.91267 19.1122 9.50251C19.7048 10.0928 20.6691 10.0928 21.2617 9.50251C21.8542 8.91267 21.8542 7.95271 21.2617 7.36237C20.6691 6.77253 19.7048 6.77253 19.1122 7.36237ZM0.618896 23.1949C1.44446 22.3731 2.78735 22.3731 3.61292 23.1949C4.43823 24.0167 4.43823 25.3536 3.61267 26.1754C2.78735 26.9971 1.44446 26.9971 0.618896 26.1754C-0.206299 25.3536 -0.206299 24.0167 0.618896 23.1949ZM1.2262 23.7994C0.735718 24.2877 0.735718 25.0826 1.2262 25.5709C1.7168 26.0592 2.51501 26.0592 3.00562 25.5709C3.49622 25.0826 3.49622 24.2877 3.00562 23.7994C2.51501 23.3111 1.7168 23.3111 1.2262 23.7994Z" fill="white"/>
</svg>
