<svg width="28" height="28" viewBox="0 0 28 28" fill="none" xmlns="http://www.w3.org/2000/svg">
<path fill-rule="evenodd" clip-rule="evenodd" d="M3.01425 0H24.9604C26.6224 0 27.9745 1.33047 27.9742 2.96609V20.2424C27.9742 21.8778 26.6222 23.2085 24.9602 23.2085H20.3549L23.3452 26.1508C23.6651 26.4659 23.8806 26.9291 23.3452 27.2912C23.2466 27.3579 22.8466 27.0866 22.6866 26.9291L19.1045 23.3386L9.55224 23.2085L5.97015 26.9291C5.81008 27.0866 5.02532 27.681 4.62926 27.2912C4.30933 26.9764 4.30933 26.4657 4.62926 26.1508L7.61939 23.2085H3.01425C1.35228 23.2085 0 21.8778 0 20.2424V2.96609C0 1.33047 1.35228 0 3.01425 0ZM25.0746 22.1417C25.8327 22.1417 26.8657 21.0927 26.8657 20.3465V2.96609C26.8657 2.21989 25.7185 1.19685 24.9604 1.19685H3.01425C2.25594 1.19685 1.19403 2.24593 1.19403 2.99213V20.2424C1.19403 20.9886 2.25594 22.1417 3.01425 22.1417H25.0746ZM10.8851 5.9186L19.6636 10.9059C19.9172 11.0498 20.0734 11.3161 20.0734 11.6042C20.0734 11.8924 19.9172 12.1585 19.6636 12.3025L10.8851 17.2901C10.7583 17.3621 10.6168 17.398 10.4753 17.398C10.3338 17.398 10.1923 17.3621 10.0655 17.2901C9.81199 17.1458 9.65576 16.8797 9.65576 16.5915V6.61712C9.65576 6.32898 9.81199 6.06267 10.0655 5.9186C10.3191 5.77453 10.6313 5.77453 10.8851 5.9186ZM10.746 7.18126V16.1576L18.7746 11.6042L10.746 7.18126Z" fill="white"/>
</svg>
